<?xml version="1.0" encoding="UTF-8" standalone="no"?>
<!-- Created with Inkscape (http://www.inkscape.org/) -->

<svg
   xmlns:dc="http://purl.org/dc/elements/1.1/"
   xmlns:cc="http://creativecommons.org/ns#"
   xmlns:rdf="http://www.w3.org/1999/02/22-rdf-syntax-ns#"
   xmlns:svg="http://www.w3.org/2000/svg"
   xmlns="http://www.w3.org/2000/svg"
   xmlns:xlink="http://www.w3.org/1999/xlink"
   version="1.1"
   width="535"
   height="86"
   viewBox="0 0 535 86"
   id="Layer_1"
   xml:space="preserve"
   style="display:inline"><metadata
     id="metadata89"><rdf:RDF><cc:Work
         rdf:about=""><dc:format>image/svg+xml</dc:format><dc:type
           rdf:resource="http://purl.org/dc/dcmitype/StillImage" /><dc:title></dc:title></cc:Work></rdf:RDF></metadata><defs
     id="defs87"><linearGradient
       id="linearGradient6104"><stop
         id="stop6106"
         style="stop-color:#000000;stop-opacity:1"
         offset="0" /><stop
         id="stop6126"
         style="stop-color:#161616;stop-opacity:1"
         offset="0.60570705" /><stop
         id="stop6118"
         style="stop-color:#323232;stop-opacity:1"
         offset="0.60570705" /><stop
         id="stop6108"
         style="stop-color:#828282;stop-opacity:1"
         offset="1" /></linearGradient><filter
       x="-0.21920349"
       y="-0.12108676"
       width="1.4384069"
       height="1.2421736"
       color-interpolation-filters="sRGB"
       id="filter6322"><feGaussianBlur
         stdDeviation="2.2688"
         id="feGaussianBlur6324" /></filter><filter
       x="-0.41844177"
       y="-0.095870897"
       width="1.8368835"
       height="1.1917418"
       color-interpolation-filters="sRGB"
       id="filter6330"><feGaussianBlur
         stdDeviation="2.046748"
         id="feGaussianBlur6332" /></filter><linearGradient
       x1="190"
       y1="109"
       x2="190"
       y2="24"
       id="linearGradient7438"
       xlink:href="#linearGradient6104"
       gradientUnits="userSpaceOnUse" /><linearGradient
       x1="190"
       y1="109"
       x2="190"
       y2="24"
       id="linearGradient7438-9"
       xlink:href="#linearGradient6104-1"
       gradientUnits="userSpaceOnUse" /><linearGradient
       id="linearGradient6104-1"><stop
         id="stop6106-7"
         style="stop-color:#000000;stop-opacity:1"
         offset="0" /><stop
         id="stop6126-7"
         style="stop-color:#161616;stop-opacity:1"
         offset="0.60570705" /><stop
         id="stop6118-1"
         style="stop-color:#323232;stop-opacity:1"
         offset="0.60570705" /><stop
         id="stop6108-1"
         style="stop-color:#828282;stop-opacity:1"
         offset="1" /></linearGradient><clipPath
       id="clipPath6397-5"><path
         d="m 292.672,80.305 c 6.727,-6.541 10.91,-15.683 10.91,-25.805 0,-10.707 -4.68,-20.316 -12.099,-26.911 l -18.361,25.49 19.55,27.226 z"
         id="path6399-9"
         style="fill:#45931c;fill-opacity:1;display:inline" /></clipPath><filter
       x="-0.21920349"
       y="-0.12108676"
       width="1.4384069"
       height="1.2421736"
       color-interpolation-filters="sRGB"
       id="filter6322-7"><feGaussianBlur
         stdDeviation="2.2688"
         id="feGaussianBlur6324-7" /></filter><clipPath
       id="clipPath6375-6"><path
         d="m 231.582,54.5 c 0,11.893 5.77,22.436 14.66,28.99 V 25.511 c -8.89,6.554 -14.66,17.096 -14.66,28.989 z"
         id="path6377-7"
         style="fill:#45931c;fill-opacity:1;display:inline" /></clipPath><filter
       x="-0.41844177"
       y="-0.095870897"
       width="1.8368835"
       height="1.1917418"
       color-interpolation-filters="sRGB"
       id="filter6330-3"><feGaussianBlur
         stdDeviation="2.046748"
         id="feGaussianBlur6332-6" /></filter><linearGradient
       x1="190"
       y1="109"
       x2="190"
       y2="24"
       id="linearGradient3212"
       xlink:href="#linearGradient6104-1"
       gradientUnits="userSpaceOnUse"
       gradientTransform="translate(-0.5,-23.5)" /></defs><path
     d="m 0.5,73.5 0,-61 c 0,-6.627417 5.37258,-12 12,-12 l 239.209,0 0,41.88334 L 280.73784,0.5 522.5,0.5 c 6.6274,0 12,5.372583 12,12 l 0,61 c 0,6.62742 -5.3726,12 -12,12 L 281.60972,85.5 251.709,41.970028 251.709,85.5 12.5,85.5 c -6.62742,0 -12,-5.37258 -12,-12 z"
     id="path5970-5-5-3-8"
     style="color:#000000;fill:url(#linearGradient3212);fill-opacity:1;stroke:#000000;stroke-width:1;stroke-linecap:round;stroke-linejoin:miter;stroke-miterlimit:3.97361732;stroke-opacity:1;stroke-dashoffset:0;marker:none;visibility:visible;display:inline;overflow:visible;enable-background:accumulate" /><path
     d="m 92.128,23.304 -3.64,0 0,17 3.64,0 c 7.126,0 10.74,-2.789 10.74,-8.289 0,-7.2 -5.84,-8.711 -10.74,-8.711 z M 62.282,65.189 c -5.185,5.768 -12.732,8.816 -21.824,8.816 -9.214,0 -16.794,-3.016 -21.92,-8.721 -4.894,-5.447 -7.48,-13.212 -7.48,-22.454 0,-9.195 2.609,-16.902 7.547,-22.287 5.127,-5.594 12.684,-8.55 21.853,-8.55 9.048,0 16.572,2.989 21.758,8.644 4.999,5.451 7.642,13.125 7.642,22.193 -0.001,9.115 -2.62,16.848 -7.576,22.359 z m 30.692,-14.59 -4.486,0 0,22.394 -12.831,0 0,-59.984 15.457,0 c 16.649,0 25.091,6.168 25.091,18.33 0,12.42 -8.25,19.26 -23.231,19.26 z m 64.554,22.102 -35.64,0 0,-59.401 34.32,0 0,10.92 -20.88,0 0,13.08 19.44,0 0,10.92 -19.32,0 -0.12,13.681 22.2,0 z m 59.587,0 -13.32,0 -27.72,-42.241 0,42.241 -12.36,0 0.12,-59.401 14.04,0 26.88,41.04 0,-41.04 12.36,0 z m 99.207,-0.041 -13.32,0 0,-59.4 13.32,0 z m 61.46,0 -13.32,0 -27.72,-42.24 0,42.24 -12.36,0 0.12,-59.4 14.04,0 26.88,41.04 0,-41.04 12.36,0 z m 44.079,0 -35.64,0 0,-59.4 34.32,0 0,10.92 -20.88,0 0,13.08 19.439,0 0,10.92 -19.319,0 -0.12,13.682 22.199,0 0,10.798 z M 471.542,27.3 c -4.356,-2.181 -8.733,-3.885 -15.24,-3.48 -10.319,0.642 -16.571,7.826 -17.04,18.48 -0.459,10.439 5.095,19.026 15.721,19.8 7.133,0.52 12.216,-1.512 16.56,-3.601 l 0,12.001 c -7.915,4.055 -21.761,4.078 -29.521,1.08 -8.162,-3.154 -13.992,-10.062 -15.959,-19.081 -2.347,-10.75 0.274,-21.566 5.159,-28.199 4.872,-6.615 12.86,-11.338 23.4,-12 l 4.92,0 c 4.405,0.355 8.659,0.86 12,2.279 z m 51.399,-3.12 -16.8,0 -0.12,48.48 -13.439,0 0,-48.48 -16.92,0 0,-10.56 0.24,-0.36 47.039,0 z M 40.458,22.29 c -11.856,0 -16.063,11.066 -16.063,20.541 0,10.094 4.22,20.88 16.063,20.88 11.843,0 16.062,-10.786 16.062,-20.88 0,-9.475 -4.208,-20.541 -16.062,-20.541 z"
     id="path11"
     style="fill:#ffffff;fill-opacity:1;stroke:none" /><g
     transform="translate(-0.5,-23.5)"
     id="g6409"><path
       d="m 285.672,92.305 c 6.727,-6.541 10.91,-15.683 10.91,-25.805 0,-10.707 -4.68,-20.316 -12.099,-26.911 l -18.361,25.49 19.55,27.226 z"
       id="path5203"
       style="fill:#45931c;fill-opacity:1" /><path
       d="m 276.15625,53.09375 c 5.6658,7.703751 10.94491,15.688962 16.875,23.1875 11.12234,-12.235769 10.45874,-33.328636 -1.125,-44.96875 -5.31547,7.253181 -11.01428,15.201884 -15.75,21.78125 z"
       transform="translate(-7,12)"
       clip-path="url(#clipPath6397-5)"
       id="path5203-1"
       style="fill:#77bb44;display:inline;filter:url(#filter6322-7)" /></g><g
     transform="translate(-0.5,-23.5)"
     id="g6403"><path
       d="m 224.582,66.5 c 0,11.893 5.77,22.436 14.66,28.99 V 37.511 c -8.89,6.554 -14.66,17.096 -14.66,28.989 z"
       id="path5205"
       style="fill:#45931c;fill-opacity:1" /><path
       d="m 243.67992,30.93593 c -6.12094,6.19318 -10.77754,15.015874 -10.80122,23.793184 -0.0237,8.777311 4.58556,17.509238 10.9963,23.520886 l 0.90246,-23.657035 z"
       transform="translate(-7,12)"
       clip-path="url(#clipPath6375-6)"
       id="path5205-2"
       style="fill:#77bb44;display:inline;filter:url(#filter6330-3)" /></g></svg>